<svg width="20" height="16" viewBox="0 0 20 16" fill="none" xmlns="http://www.w3.org/2000/svg">
<path d="M18.75 15.5C18.75 15.5 20 15.5 20 14.25C20 13 18.75 9.25 13.75 9.25C8.75 9.25 7.5 13 7.5 14.25C7.5 15.5 8.75 15.5 8.75 15.5H18.75ZM8.77793 14.25C8.7736 14.2495 8.76754 14.2487 8.76019 14.2475C8.75672 14.2469 8.75333 14.2463 8.75001 14.2456C8.75182 13.9156 8.95859 12.9586 9.69907 12.0947C10.3917 11.2867 11.6034 10.5 13.75 10.5C15.8966 10.5 17.1083 11.2867 17.8009 12.0947C18.5414 12.9586 18.7482 13.9156 18.75 14.2456C18.7467 14.2463 18.7433 14.2469 18.7398 14.2475C18.7325 14.2487 18.7264 14.2495 18.7221 14.25H8.77793Z" fill="black"/>
<path d="M13.75 6.75C15.1307 6.75 16.25 5.63071 16.25 4.25C16.25 2.86929 15.1307 1.75 13.75 1.75C12.3693 1.75 11.25 2.86929 11.25 4.25C11.25 5.63071 12.3693 6.75 13.75 6.75ZM17.5 4.25C17.5 6.32107 15.8211 8 13.75 8C11.6789 8 10 6.32107 10 4.25C10 2.17893 11.6789 0.5 13.75 0.5C15.8211 0.5 17.5 2.17893 17.5 4.25Z" fill="black"/>
<path d="M8.66991 9.59996C8.21017 9.4529 7.69942 9.34599 7.13285 9.29132C6.85244 9.26426 6.55835 9.25 6.25 9.25C1.25 9.25 0 13 0 14.25C0 15.0833 0.416667 15.5 1.25 15.5H6.52045C6.34445 15.1449 6.25 14.7239 6.25 14.25C6.25 12.9871 6.72156 11.6975 7.61227 10.6202C7.91659 10.2522 8.26983 9.90891 8.66991 9.59996ZM6.15005 10.5006C5.40319 11.642 5 12.9434 5 14.25H1.25C1.25 13.9241 1.45531 12.9625 2.19907 12.0947C2.88086 11.2993 4.06562 10.5246 6.15005 10.5006Z" fill="black"/>
<path d="M1.875 4.875C1.875 2.80393 3.55393 1.125 5.625 1.125C7.69607 1.125 9.375 2.80393 9.375 4.875C9.375 6.94607 7.69607 8.625 5.625 8.625C3.55393 8.625 1.875 6.94607 1.875 4.875ZM5.625 2.375C4.24429 2.375 3.125 3.49429 3.125 4.875C3.125 6.25571 4.24429 7.375 5.625 7.375C7.00571 7.375 8.125 6.25571 8.125 4.875C8.125 3.49429 7.00571 2.375 5.625 2.375Z" fill="black"/>
</svg>
