<svg width="19" height="19" viewBox="0 0 19 19" fill="none" xmlns="http://www.w3.org/2000/svg">
<path d="M9.91985 1.36141C9.68797 1.12953 9.31203 1.12953 9.08016 1.36141L1.95516 8.48641C1.84381 8.59776 1.78125 8.74878 1.78125 8.90625V17.2188C1.78125 17.5467 2.04708 17.8125 2.375 17.8125H7.71875C8.04667 17.8125 8.3125 17.5467 8.3125 17.2188V12.4688H10.6875V17.2188C10.6875 17.5467 10.9533 17.8125 11.2813 17.8125H16.625C16.9529 17.8125 17.2188 17.5467 17.2188 17.2188V8.90625C17.2188 8.74878 17.1562 8.59776 17.0448 8.48641L15.4375 6.87906V2.96875C15.4375 2.64083 15.1717 2.375 14.8438 2.375H13.6563C13.3283 2.375 13.0625 2.64083 13.0625 2.96875V4.50406L9.91985 1.36141ZM2.96875 16.625V9.15219L9.5 2.62094L16.0313 9.15219V16.625H11.875V11.875C11.875 11.5471 11.6092 11.2812 11.2813 11.2812H7.71875C7.39083 11.2812 7.125 11.5471 7.125 11.875V16.625H2.96875Z" fill="black"/>
</svg>
