<svg width="20" height="20" viewBox="0 0 20 20" fill="none" xmlns="http://www.w3.org/2000/svg">
<path d="M10.7922 5.51543L15.0889 6.65931M9.87237 8.93177L12.0198 9.50416M9.97948 15.3694L10.8381 15.5989C13.2681 16.2468 14.4832 16.5699 15.4408 16.02C16.3975 15.4711 16.7233 14.2624 17.374 11.8468L18.2947 8.42958C18.9463 6.01312 19.2712 4.80534 18.7186 3.85316C18.166 2.90097 16.9519 2.57788 14.521 1.93079L13.6623 1.70129C11.2323 1.05331 10.0173 0.730211 9.06056 1.2801C8.10294 1.82909 7.77714 3.03777 7.12553 5.45333L6.20571 8.87057C5.5541 11.287 5.2283 12.4948 5.78181 13.447C6.33441 14.3983 7.54944 14.7223 9.97948 15.3694Z" stroke="black" stroke-width="1.2" stroke-linecap="round" stroke-linejoin="round"/>
<path d="M10.0002 18.0513L9.14336 18.2853C6.71872 18.945 5.5073 19.2753 4.55148 18.7146C3.59747 18.1548 3.27166 16.9236 2.62275 14.4595L1.70384 10.9747C1.05402 8.51149 0.729119 7.27941 1.28083 6.30923C1.75784 5.46954 2.80005 5.50014 4.15008 5.50014" stroke="black" stroke-width="1.2" stroke-linecap="round" stroke-linejoin="round"/>
</svg>
